# xmcd CD database file
#
# Track frame offsets:
#	150
#	10897
#	20272
#	31897
#	49082
#	61157
#	74873
#	88673
#	100260
#	112977
#
# Disc length: 1727 seconds
#
# Revision: 2
# Processed by: cddbd v1.5.2PL0 Copyright (c) Steve Scherf et al.
# Submitted via: CDex 1.75
#
DISCID=7c06bd0a
DTITLE=Jack Greene - The Best Of The Best
DYEAR=1999
DGENRE=Country
TTITLE0=There Goes My Everything
TTITLE1=Wish I Didn't Have To Miss You
TTITLE2=All The Time
TTITLE3=What Locks The Door
TTITLE4=Wanting You But Never Having You
TTITLE5=You Are My Treasure
TTITLE6=Statue Of A Fool
TTITLE7=Until My Dreams Come True
TTITLE8=I Need Somebody Bad
TTITLE9=Last Letter
EXTD=YEAR: 1999
EXTT0=
EXTT1=
EXTT2=
EXTT3=
EXTT4=
EXTT5=
EXTT6=
EXTT7=
EXTT8=
EXTT9=
PLAYORDER=
